<svg xmlns="http://www.w3.org/2000/svg" xmlns:xlink="http://www.w3.org/1999/xlink" viewBox="180 180 800 800" width="1200" height="1200" preserveAspectRatio="xMidYMid meet" style="width: 100%; height: 100%; transform: translate3d(0px, 0px, 0px); content-visibility: visible;"><defs><clipPath id="__lottie_element_2"><rect width="1200" height="1200" x="0" y="0"></rect></clipPath><linearGradient id="__lottie_element_8" spreadMethod="pad" gradientUnits="userSpaceOnUse" x1="0" y1="-300" x2="0" y2="300"><stop offset="0%" stop-color="rgb(242,89,138)"></stop><stop offset="50%" stop-color="rgb(191,81,197)"></stop><stop offset="100%" stop-color="rgb(140,72,255)"></stop></linearGradient><linearGradient id="__lottie_element_9" spreadMethod="pad" gradientUnits="userSpaceOnUse" x1="0" y1="-300" x2="0" y2="300"><stop offset="20%" stop-color="rgb(203,52,60)"></stop><stop offset="50%" stop-color="rgb(229,114,72)"></stop><stop offset="80%" stop-color="rgb(255,177,84)"></stop></linearGradient><linearGradient id="__lottie_element_10" spreadMethod="pad" gradientUnits="userSpaceOnUse" x1="0" y1="-300" x2="0" y2="300"><stop offset="0%" stop-color="rgb(255,177,82)"></stop><stop offset="50%" stop-color="rgb(249,133,110)"></stop><stop offset="100%" stop-color="rgb(242,89,138)"></stop></linearGradient><linearGradient id="__lottie_element_14" spreadMethod="pad" gradientUnits="userSpaceOnUse" x1="0" y1="-300" x2="0" y2="300"><stop offset="0%" stop-color="rgb(255,177,82)"></stop><stop offset="50%" stop-color="rgb(249,133,110)"></stop><stop offset="100%" stop-color="rgb(242,89,138)"></stop></linearGradient><linearGradient id="__lottie_element_15" spreadMethod="pad" gradientUnits="userSpaceOnUse" x1="0" y1="-300" x2="0" y2="300"><stop offset="20%" stop-color="rgb(255,177,84)"></stop><stop offset="50%" stop-color="rgb(229,114,72)"></stop><stop offset="80%" stop-color="rgb(203,52,60)"></stop></linearGradient><linearGradient id="__lottie_element_16" spreadMethod="pad" gradientUnits="userSpaceOnUse" x1="0" y1="300" x2="0" y2="-300"><stop offset="0%" stop-color="rgb(34,83,206)"></stop><stop offset="25%" stop-color="rgb(17,129,231)"></stop><stop offset="50%" stop-color="rgb(0,174,255)"></stop><stop offset="75%" stop-color="rgb(41,177,184)"></stop><stop offset="100%" stop-color="rgb(82,180,113)"></stop></linearGradient><linearGradient id="__lottie_element_20" spreadMethod="pad" gradientUnits="userSpaceOnUse" x1="0" y1="-300" x2="0" y2="300"><stop offset="0%" stop-color="rgb(82,180,113)"></stop><stop offset="50%" stop-color="rgb(169,190,57)"></stop><stop offset="100%" stop-color="rgb(255,200,0)"></stop></linearGradient><linearGradient id="__lottie_element_21" spreadMethod="pad" gradientUnits="userSpaceOnUse" x1="0" y1="-300" x2="0" y2="300"><stop offset="20%" stop-color="rgb(203,52,60)"></stop><stop offset="50%" stop-color="rgb(229,114,72)"></stop><stop offset="80%" stop-color="rgb(255,177,84)"></stop></linearGradient><linearGradient id="__lottie_element_22" spreadMethod="pad" gradientUnits="userSpaceOnUse" x1="0" y1="300" x2="0" y2="-300"><stop offset="0%" stop-color="rgb(242,89,138)"></stop><stop offset="50%" stop-color="rgb(191,81,197)"></stop><stop offset="100%" stop-color="rgb(140,72,255)"></stop></linearGradient><linearGradient id="__lottie_element_26" spreadMethod="pad" gradientUnits="userSpaceOnUse" x1="0" y1="-300" x2="0" y2="300"><stop offset="0%" stop-color="rgb(34,83,206)"></stop><stop offset="25%" stop-color="rgb(17,129,231)"></stop><stop offset="50%" stop-color="rgb(0,174,255)"></stop><stop offset="75%" stop-color="rgb(41,177,184)"></stop><stop offset="100%" stop-color="rgb(82,180,113)"></stop></linearGradient><linearGradient id="__lottie_element_27" spreadMethod="pad" gradientUnits="userSpaceOnUse" x1="0" y1="-300" x2="0" y2="300"><stop offset="20%" stop-color="rgb(255,177,84)"></stop><stop offset="50%" stop-color="rgb(229,114,72)"></stop><stop offset="80%" stop-color="rgb(203,52,60)"></stop></linearGradient><linearGradient id="__lottie_element_28" spreadMethod="pad" gradientUnits="userSpaceOnUse" x1="0" y1="-300" x2="0" y2="300"><stop offset="0%" stop-color="rgb(82,180,113)"></stop><stop offset="50%" stop-color="rgb(169,190,57)"></stop><stop offset="100%" stop-color="rgb(255,200,0)"></stop></linearGradient></defs><g clip-path="url(#__lottie_element_2)"><g class="BarA" transform="matrix(1,0,0,1,330,598)" opacity="1" style="display: block;"><g class="BarARect" opacity="1" transform="matrix(1,0,0,1,0,0)"><path fill="url(#__lottie_element_26)" fill-opacity="1" d=" M66.5,-94.734130859375 C66.5,-94.734130859375 66.5,94.734130859375 66.5,94.734130859375 C66.5,131.43548583984375 36.701351165771484,161.234130859375 0,161.234130859375 C0,161.234130859375 0,161.234130859375 0,161.234130859375 C-36.701351165771484,161.234130859375 -66.5,131.43548583984375 -66.5,94.734130859375 C-66.5,94.734130859375 -66.5,-94.734130859375 -66.5,-94.734130859375 C-66.5,-131.43548583984375 -36.701351165771484,-161.234130859375 0,-161.234130859375 C0,-161.234130859375 0,-161.234130859375 0,-161.234130859375 C36.701351165771484,-161.234130859375 66.5,-131.43548583984375 66.5,-94.734130859375z"></path><path fill="url(#__lottie_element_27)" fill-opacity="0" d=" M66.5,-94.734130859375 C66.5,-94.734130859375 66.5,94.734130859375 66.5,94.734130859375 C66.5,131.43548583984375 36.701351165771484,161.234130859375 0,161.234130859375 C0,161.234130859375 0,161.234130859375 0,161.234130859375 C-36.701351165771484,161.234130859375 -66.5,131.43548583984375 -66.5,94.734130859375 C-66.5,94.734130859375 -66.5,-94.734130859375 -66.5,-94.734130859375 C-66.5,-131.43548583984375 -36.701351165771484,-161.234130859375 0,-161.234130859375 C0,-161.234130859375 0,-161.234130859375 0,-161.234130859375 C36.701351165771484,-161.234130859375 66.5,-131.43548583984375 66.5,-94.734130859375z"></path><path fill="url(#__lottie_element_28)" fill-opacity="0" d=" M66.5,-94.734130859375 C66.5,-94.734130859375 66.5,94.734130859375 66.5,94.734130859375 C66.5,131.43548583984375 36.701351165771484,161.234130859375 0,161.234130859375 C0,161.234130859375 0,161.234130859375 0,161.234130859375 C-36.701351165771484,161.234130859375 -66.5,131.43548583984375 -66.5,94.734130859375 C-66.5,94.734130859375 -66.5,-94.734130859375 -66.5,-94.734130859375 C-66.5,-131.43548583984375 -36.701351165771484,-161.234130859375 0,-161.234130859375 C0,-161.234130859375 0,-161.234130859375 0,-161.234130859375 C36.701351165771484,-161.234130859375 66.5,-131.43548583984375 66.5,-94.734130859375z"></path></g></g><g class="BarB" transform="matrix(1,0,0,1,510,598)" opacity="1" style="display: block;"><g class="BarBRect" opacity="1" transform="matrix(1,0,0,1,0,0)"><path fill="url(#__lottie_element_20)" fill-opacity="1" d=" M66.5,-20.551132202148438 C66.5,-20.551132202148438 66.5,20.551132202148438 66.5,20.551132202148438 C66.5,57.25248336791992 36.701351165771484,87.05113220214844 0,87.05113220214844 C0,87.05113220214844 0,87.05113220214844 0,87.05113220214844 C-36.701351165771484,87.05113220214844 -66.5,57.25248336791992 -66.5,20.551132202148438 C-66.5,20.551132202148438 -66.5,-20.551132202148438 -66.5,-20.551132202148438 C-66.5,-57.25248336791992 -36.701351165771484,-87.05113220214844 0,-87.05113220214844 C0,-87.05113220214844 0,-87.05113220214844 0,-87.05113220214844 C36.701351165771484,-87.05113220214844 66.5,-57.25248336791992 66.5,-20.551132202148438z"></path><path fill="url(#__lottie_element_21)" fill-opacity="0" d=" M66.5,-20.551132202148438 C66.5,-20.551132202148438 66.5,20.551132202148438 66.5,20.551132202148438 C66.5,57.25248336791992 36.701351165771484,87.05113220214844 0,87.05113220214844 C0,87.05113220214844 0,87.05113220214844 0,87.05113220214844 C-36.701351165771484,87.05113220214844 -66.5,57.25248336791992 -66.5,20.551132202148438 C-66.5,20.551132202148438 -66.5,-20.551132202148438 -66.5,-20.551132202148438 C-66.5,-57.25248336791992 -36.701351165771484,-87.05113220214844 0,-87.05113220214844 C0,-87.05113220214844 0,-87.05113220214844 0,-87.05113220214844 C36.701351165771484,-87.05113220214844 66.5,-57.25248336791992 66.5,-20.551132202148438z"></path><path fill="url(#__lottie_element_22)" fill-opacity="0" d=" M66.5,-20.551132202148438 C66.5,-20.551132202148438 66.5,20.551132202148438 66.5,20.551132202148438 C66.5,57.25248336791992 36.701351165771484,87.05113220214844 0,87.05113220214844 C0,87.05113220214844 0,87.05113220214844 0,87.05113220214844 C-36.701351165771484,87.05113220214844 -66.5,57.25248336791992 -66.5,20.551132202148438 C-66.5,20.551132202148438 -66.5,-20.551132202148438 -66.5,-20.551132202148438 C-66.5,-57.25248336791992 -36.701351165771484,-87.05113220214844 0,-87.05113220214844 C0,-87.05113220214844 0,-87.05113220214844 0,-87.05113220214844 C36.701351165771484,-87.05113220214844 66.5,-57.25248336791992 66.5,-20.551132202148438z"></path></g></g><g class="BarC" transform="matrix(1,0,0,1,690,598)" opacity="1" style="display: block;"><g class="BarCRect" opacity="1" transform="matrix(1,0,0,1,0,0)"><path fill="url(#__lottie_element_14)" fill-opacity="1" d=" M66.5,-81.61540222167969 C66.5,-81.61540222167969 66.5,81.61540222167969 66.5,81.61540222167969 C66.5,118.3167495727539 36.701351165771484,148.1154022216797 0,148.1154022216797 C0,148.1154022216797 0,148.1154022216797 0,148.1154022216797 C-36.701351165771484,148.1154022216797 -66.5,118.3167495727539 -66.5,81.61540222167969 C-66.5,81.61540222167969 -66.5,-81.61540222167969 -66.5,-81.61540222167969 C-66.5,-118.3167495727539 -36.701351165771484,-148.1154022216797 0,-148.1154022216797 C0,-148.1154022216797 0,-148.1154022216797 0,-148.1154022216797 C36.701351165771484,-148.1154022216797 66.5,-118.3167495727539 66.5,-81.61540222167969z"></path><path fill="url(#__lottie_element_15)" fill-opacity="0" d=" M66.5,-81.61540222167969 C66.5,-81.61540222167969 66.5,81.61540222167969 66.5,81.61540222167969 C66.5,118.3167495727539 36.701351165771484,148.1154022216797 0,148.1154022216797 C0,148.1154022216797 0,148.1154022216797 0,148.1154022216797 C-36.701351165771484,148.1154022216797 -66.5,118.3167495727539 -66.5,81.61540222167969 C-66.5,81.61540222167969 -66.5,-81.61540222167969 -66.5,-81.61540222167969 C-66.5,-118.3167495727539 -36.701351165771484,-148.1154022216797 0,-148.1154022216797 C0,-148.1154022216797 0,-148.1154022216797 0,-148.1154022216797 C36.701351165771484,-148.1154022216797 66.5,-118.3167495727539 66.5,-81.61540222167969z"></path><path fill="url(#__lottie_element_16)" fill-opacity="0" d=" M66.5,-81.61540222167969 C66.5,-81.61540222167969 66.5,81.61540222167969 66.5,81.61540222167969 C66.5,118.3167495727539 36.701351165771484,148.1154022216797 0,148.1154022216797 C0,148.1154022216797 0,148.1154022216797 0,148.1154022216797 C-36.701351165771484,148.1154022216797 -66.5,118.3167495727539 -66.5,81.61540222167969 C-66.5,81.61540222167969 -66.5,-81.61540222167969 -66.5,-81.61540222167969 C-66.5,-118.3167495727539 -36.701351165771484,-148.1154022216797 0,-148.1154022216797 C0,-148.1154022216797 0,-148.1154022216797 0,-148.1154022216797 C36.701351165771484,-148.1154022216797 66.5,-118.3167495727539 66.5,-81.61540222167969z"></path></g></g><g class="BarD" transform="matrix(1,0,0,1,870,598)" opacity="1" style="display: block;"><g class="BarCRect" opacity="1" transform="matrix(1,0,0,1,0,0)"><path fill="url(#__lottie_element_8)" fill-opacity="1" d=" M66.5,-247.3980712890625 C66.5,-247.3980712890625 66.5,247.3980712890625 66.5,247.3980712890625 C66.5,284.09942626953125 36.701351165771484,313.8980712890625 0,313.8980712890625 C0,313.8980712890625 0,313.8980712890625 0,313.8980712890625 C-36.701351165771484,313.8980712890625 -66.5,284.09942626953125 -66.5,247.3980712890625 C-66.5,247.3980712890625 -66.5,-247.3980712890625 -66.5,-247.3980712890625 C-66.5,-284.09942626953125 -36.701351165771484,-313.8980712890625 0,-313.8980712890625 C0,-313.8980712890625 0,-313.8980712890625 0,-313.8980712890625 C36.701351165771484,-313.8980712890625 66.5,-284.09942626953125 66.5,-247.3980712890625z"></path><path fill="url(#__lottie_element_9)" fill-opacity="0" d=" M66.5,-247.3980712890625 C66.5,-247.3980712890625 66.5,247.3980712890625 66.5,247.3980712890625 C66.5,284.09942626953125 36.701351165771484,313.8980712890625 0,313.8980712890625 C0,313.8980712890625 0,313.8980712890625 0,313.8980712890625 C-36.701351165771484,313.8980712890625 -66.5,284.09942626953125 -66.5,247.3980712890625 C-66.5,247.3980712890625 -66.5,-247.3980712890625 -66.5,-247.3980712890625 C-66.5,-284.09942626953125 -36.701351165771484,-313.8980712890625 0,-313.8980712890625 C0,-313.8980712890625 0,-313.8980712890625 0,-313.8980712890625 C36.701351165771484,-313.8980712890625 66.5,-284.09942626953125 66.5,-247.3980712890625z"></path><path fill="url(#__lottie_element_10)" fill-opacity="0" d=" M66.5,-247.3980712890625 C66.5,-247.3980712890625 66.5,247.3980712890625 66.5,247.3980712890625 C66.5,284.09942626953125 36.701351165771484,313.8980712890625 0,313.8980712890625 C0,313.8980712890625 0,313.8980712890625 0,313.8980712890625 C-36.701351165771484,313.8980712890625 -66.5,284.09942626953125 -66.5,247.3980712890625 C-66.5,247.3980712890625 -66.5,-247.3980712890625 -66.5,-247.3980712890625 C-66.5,-284.09942626953125 -36.701351165771484,-313.8980712890625 0,-313.8980712890625 C0,-313.8980712890625 0,-313.8980712890625 0,-313.8980712890625 C36.701351165771484,-313.8980712890625 66.5,-284.09942626953125 66.5,-247.3980712890625z"></path></g></g></g></svg>